<svg width="246" height="246" viewBox="0 0 246 246" fill="none" xmlns="http://www.w3.org/2000/svg">
<rect x="8" y="8" width="230" height="230" fill="#09FF00"/>
<line x1="17.3877" y1="12" x2="7.99994" y2="12" stroke="black" stroke-width="8"/>
<line x1="238" y1="12" x2="228.612" y2="12" stroke="black" stroke-width="8"/>
<line x1="238" y1="232.612" x2="228.612" y2="232.612" stroke="black" stroke-width="8"/>
<line x1="17.3877" y1="232.612" x2="7.99994" y2="232.612" stroke="black" stroke-width="8"/>
<line x1="228.612" y1="242" x2="17.3878" y2="242" stroke="black" stroke-width="8"/>
<line x1="242" y1="17.3877" x2="242" y2="228.612" stroke="black" stroke-width="8"/>
<line x1="17.3877" y1="4" x2="228.612" y2="4" stroke="black" stroke-width="8"/>
<line x1="4" y1="228.612" x2="4" y2="17.3878" stroke="black" stroke-width="8"/>
<path d="M197.808 114.688V106.376H189.496V98.0635H172.872V89.7514H156.248V81.4393H147.936V73.1273H131.312V64.8152H114.688V56.5031H106.376V48.191H89.7514V39.879H73.1272V31.5669H48.191V39.879H39.8789V206.12H48.191V214.433H73.1272V206.12H89.7514V197.808H106.376V189.496H114.688V181.184H131.312V172.872H147.936V164.56H156.248V156.248H172.872V147.936H189.496V139.624H197.808V131.312H206.12V114.688H197.808ZM181.184 131.312H164.56V139.624H147.936V147.936H139.624V156.248H123V164.56H106.376V172.872H98.0634V181.184H81.4393V189.496H64.8151V197.808H56.5031V48.191H64.8151V56.5031H81.4393V64.8152H98.0634V73.1273H106.376V81.4393H123V89.7514H139.624V98.0635H147.936V106.376H164.56V114.688H181.184V131.312Z" fill="black"/>
</svg>
