<svg width="66" height="51" viewBox="0 0 66 51" fill="none" xmlns="http://www.w3.org/2000/svg">
<path d="M5.49984 41.2778H10.0832V45.8612H5.49984V41.2778Z" fill="black"/>
<path d="M55.9165 41.2778H60.4998V45.8612H55.9165V41.2778Z" fill="black"/>
<path d="M46.7498 18.3612H51.3332V22.9445H46.7498V18.3612Z" fill="black"/>
<path d="M42.1665 22.9445H46.7498V27.5278H42.1665V22.9445Z" fill="black"/>
<path d="M51.3332 13.7778H55.9165V18.3612H51.3332V13.7778Z" fill="black"/>
<path d="M10.0832 13.7778H14.6665V18.3612H10.0832V13.7778Z" fill="black"/>
<path d="M14.6665 18.3612H19.2498V22.9445H14.6665V18.3612Z" fill="black"/>
<path d="M19.2498 22.9445H23.8332V27.5278H19.2498V22.9445Z" fill="black"/>
<path d="M60.4998 41.2778H65.0832V9.1945H60.4998V4.61116H55.9165V13.7778H60.4998V41.2778Z" fill="black"/>
<path d="M42.1665 32.1112V27.5278H23.8332V32.1112H42.1665Z" fill="black"/>
<path d="M5.49984 9.1945H0.916504V41.2778H5.49984V13.7778H10.0832V4.61116H5.49984V9.1945Z" fill="black"/>
<path d="M10.0832 0.027832V4.61116H55.9165V0.027832H10.0832Z" fill="black"/>
<path d="M10.0832 45.8612V50.4445H55.9165V45.8612H10.0832Z" fill="black"/>
</svg>
