<svg width="66" height="66" viewBox="0 0 66 66" fill="none" xmlns="http://www.w3.org/2000/svg">
<path d="M10.0832 19.2498H14.6665V23.8332H10.0832V19.2498Z" fill="black"/>
<path d="M14.6665 14.6665H19.2498V19.2498H14.6665V14.6665Z" fill="black"/>
<path d="M0.916504 28.4165H5.49984V32.9998H0.916504V28.4165Z" fill="black"/>
<path d="M60.4998 28.4165H65.0832V32.9998H60.4998V28.4165Z" fill="black"/>
<path d="M55.9165 23.8332H60.4998V28.4165H55.9165V23.8332Z" fill="black"/>
<path d="M51.3332 19.2498H55.9165V23.8332H51.3332V19.2498Z" fill="black"/>
<path d="M46.7498 14.6665H51.3332V19.2498H46.7498V14.6665Z" fill="black"/>
<path d="M42.1665 10.0832H46.7498V14.6665H42.1665V10.0832Z" fill="black"/>
<path d="M37.5832 5.49984H42.1665V10.0832H37.5832V5.49984Z" fill="black"/>
<path d="M23.8332 5.49984H28.4165V10.0832H23.8332V5.49984Z" fill="black"/>
<path d="M19.2498 10.0832H23.8332V14.6665H19.2498V10.0832Z" fill="black"/>
<path d="M5.49984 23.8332H10.0832V28.4165H5.49984V23.8332Z" fill="black"/>
<path d="M10.0832 32.9998H5.49984V60.4998H10.0832V32.9998Z" fill="black"/>
<path d="M10.0832 60.4998V65.0832H23.8332V60.4998H10.0832Z" fill="black"/>
<path d="M23.8332 60.4998H28.4165V46.7498H23.8332V60.4998Z" fill="black"/>
<path d="M28.4165 42.1665V46.7498H37.5832V42.1665H28.4165Z" fill="black"/>
<path d="M42.1665 46.7498H37.5832V60.4998H42.1665V46.7498Z" fill="black"/>
<path d="M42.1665 60.4998V65.0832H55.9165V60.4998H42.1665Z" fill="black"/>
<path d="M55.9165 60.4998H60.4998V32.9998H55.9165V60.4998Z" fill="black"/>
<path d="M37.5832 0.916504H28.4165V5.49984H37.5832V0.916504Z" fill="black"/>
</svg>
