<svg width="74" height="74" viewBox="0 0 74 74" fill="none" xmlns="http://www.w3.org/2000/svg">
<path d="M4.91683 23.2502H9.50016V27.8335H4.91683V23.2502Z" fill="black"/>
<path d="M69.0835 46.1668H64.5002V50.7502H69.0835V46.1668Z" fill="black"/>
<path d="M4.91683 69.0835H9.50016V73.6668H4.91683V69.0835Z" fill="black"/>
<path d="M9.50016 64.5002H14.0835V69.0835H9.50016V64.5002Z" fill="black"/>
<path d="M69.0835 4.91683H64.5002V0.333496H69.0835V4.91683Z" fill="black"/>
<path d="M64.5002 9.50016H59.9168V4.91683H64.5002V9.50016Z" fill="black"/>
<path d="M9.50016 18.6668H14.0835V23.2502H9.50016V18.6668Z" fill="black"/>
<path d="M64.5002 55.3335H59.9168V50.7502H64.5002V55.3335Z" fill="black"/>
<path fill-rule="evenodd" clip-rule="evenodd" d="M14.0835 14.0835V18.6668H23.2502V59.9168H59.9168V55.3335H50.7502V14.0835H14.0835ZM27.8335 55.3335V18.6668H46.1668V55.3335H27.8335Z" fill="black"/>
<path d="M14.0835 59.9168V64.5002H23.2502V59.9168H14.0835Z" fill="black"/>
<path d="M4.91683 27.8335H0.333496V69.0835H4.91683V27.8335Z" fill="black"/>
<path d="M59.9168 14.0835V9.50016H50.7502V14.0835H59.9168Z" fill="black"/>
<path d="M69.0835 46.1668H73.6668V4.91683H69.0835V46.1668Z" fill="black"/>
</svg>
