<svg width="66" height="66" viewBox="0 0 66 66" fill="none" xmlns="http://www.w3.org/2000/svg">
<path d="M19.2498 42.1665H23.8332V46.7498H19.2498V42.1665Z" fill="black"/>
<path d="M46.7498 42.1665H42.1665V46.7498H46.7498V42.1665Z" fill="black"/>
<path d="M19.2498 19.2498H23.8332V23.8332H19.2498V19.2498Z" fill="black"/>
<path d="M46.7498 19.2498H42.1665V23.8332H46.7498V19.2498Z" fill="black"/>
<path d="M23.8332 23.8332H28.4165V28.4165H23.8332V23.8332Z" fill="black"/>
<path d="M42.1665 23.8332H37.5832V28.4165H42.1665V23.8332Z" fill="black"/>
<path d="M14.6665 23.8332H19.2498V28.4165H14.6665V23.8332Z" fill="black"/>
<path d="M51.3332 23.8332H46.7498V28.4165H51.3332V23.8332Z" fill="black"/>
<path d="M19.2498 60.4998V65.0832H46.7498V60.4998H19.2498Z" fill="black"/>
<path d="M42.1665 51.3332V46.7498H23.8332V51.3332H42.1665Z" fill="black"/>
<path d="M10.0832 55.9165V60.4998H19.2498V55.9165H10.0832Z" fill="black"/>
<path d="M10.0832 46.7498H5.49984V55.9165H10.0832V46.7498Z" fill="black"/>
<path d="M0.916504 46.7498H5.49984V19.2498H0.916504V46.7498Z" fill="black"/>
<path d="M5.49984 19.2498H10.0832V10.0832H5.49984L5.49984 19.2498Z" fill="black"/>
<path d="M10.0832 5.49984V10.0832H19.2498V5.49984H10.0832Z" fill="black"/>
<path d="M19.2498 0.916504V5.49984H46.7498V0.916504H19.2498Z" fill="black"/>
<path d="M55.9165 10.0832V5.49984H46.7498V10.0832H55.9165Z" fill="black"/>
<path d="M55.9165 19.2498H60.4998V10.0832H55.9165V19.2498Z" fill="black"/>
<path d="M60.4998 46.7498H65.0832V19.2498H60.4998V46.7498Z" fill="black"/>
<path d="M60.4998 46.7498H55.9165V55.9165H60.4998V46.7498Z" fill="black"/>
<path d="M55.9165 60.4998V55.9165H46.7498V60.4998H55.9165Z" fill="black"/>
</svg>
