<svg width="66" height="66" viewBox="0 0 66 66" fill="none" xmlns="http://www.w3.org/2000/svg">
<path d="M10.0832 19.25H14.6665V23.8333H10.0832V19.25Z" fill="#091DFF"/>
<path d="M14.6665 14.6666H19.2498V19.25H14.6665V14.6666Z" fill="#091DFF"/>
<path d="M0.916504 28.4166H5.49984V33H0.916504V28.4166Z" fill="#091DFF"/>
<path d="M60.4998 28.4166H65.0832V33H60.4998V28.4166Z" fill="#091DFF"/>
<path d="M55.9165 23.8333H60.4998V28.4166H55.9165V23.8333Z" fill="#091DFF"/>
<path d="M51.3332 19.25H55.9165V23.8333H51.3332V19.25Z" fill="#091DFF"/>
<path d="M46.7498 14.6666H51.3332V19.25H46.7498V14.6666Z" fill="#091DFF"/>
<path d="M42.1665 10.0833H46.7498V14.6666H42.1665V10.0833Z" fill="#091DFF"/>
<path d="M37.5832 5.49996H42.1665V10.0833H37.5832V5.49996Z" fill="#091DFF"/>
<path d="M23.8332 5.49996H28.4165V10.0833H23.8332V5.49996Z" fill="#091DFF"/>
<path d="M19.2498 10.0833H23.8332V14.6666H19.2498V10.0833Z" fill="#091DFF"/>
<path d="M5.49984 23.8333H10.0832V28.4166H5.49984V23.8333Z" fill="#091DFF"/>
<path d="M10.0832 33H5.49984V60.5H10.0832V33Z" fill="#091DFF"/>
<path d="M10.0832 60.5V65.0833H23.8332V60.5H10.0832Z" fill="#091DFF"/>
<path d="M23.8332 60.5H28.4165V46.75H23.8332V60.5Z" fill="#091DFF"/>
<path d="M28.4165 42.1666V46.75H37.5832V42.1666H28.4165Z" fill="#091DFF"/>
<path d="M42.1665 46.75H37.5832V60.5H42.1665V46.75Z" fill="#091DFF"/>
<path d="M42.1665 60.5V65.0833H55.9165V60.5H42.1665Z" fill="#091DFF"/>
<path d="M55.9165 60.5H60.4998V33H55.9165V60.5Z" fill="#091DFF"/>
<path d="M37.5832 0.916626H28.4165V5.49996H37.5832V0.916626Z" fill="#091DFF"/>
</svg>
