<svg width="56" height="56" viewBox="0 0 56 56" fill="none" xmlns="http://www.w3.org/2000/svg">
<path d="M5.08333 5.0833H0.5V50.9166H5.08333V5.0833Z" fill="#FF7B00"/>
<path d="M5.08346 0.5L5.08333 5.0833L14.2501 5.08333V0.5H5.08346Z" fill="#FF7B00"/>
<path d="M14.2501 5.08333L14.25 9.6667L23.4167 9.66664L23.4168 5.08336L14.2501 5.08333Z" fill="#FF7B00"/>
<path d="M23.4167 9.66664V14.25L32.5835 14.25L32.5833 9.66664H23.4167Z" fill="#FF7B00"/>
<path d="M32.5835 14.25V18.8333L41.75 18.8334L41.7501 14.25H32.5835Z" fill="#FF7B00"/>
<path d="M41.75 18.8334V23.4167L50.9167 23.4166L50.9168 18.8334H41.75Z" fill="#FF7B00"/>
<path d="M50.9167 32.5834H55.5V23.4166H50.9167V32.5834Z" fill="#FF7B00"/>
<path d="M41.75 32.5833V37.1666H50.9168L50.9167 32.5834L41.75 32.5833Z" fill="#FF7B00"/>
<path d="M32.5835 37.1667V41.75H41.7501L41.75 37.1666L32.5835 37.1667Z" fill="#FF7B00"/>
<path d="M23.4167 41.75V46.3334H32.5833L32.5835 41.75L23.4167 41.75Z" fill="#FF7B00"/>
<path d="M14.25 46.3333L14.2501 50.9167L23.4168 50.9166L23.4167 46.3334L14.25 46.3333Z" fill="#FF7B00"/>
<path d="M5.08333 50.9166L5.08346 55.5H14.2501V50.9167L5.08333 50.9166Z" fill="#FF7B00"/>
</svg>
